<?xml version="1.0" encoding="utf-8"?>
<!-- Generator: Adobe Illustrator 19.2.1, SVG Export Plug-In . SVG Version: 6.00 Build 0)  -->
<svg version="1.1" id="layer" xmlns="http://www.w3.org/2000/svg" xmlns:xlink="http://www.w3.org/1999/xlink" x="0px" y="0px"
	 viewBox="0 0 652 652" style="enable-background:new 0 0 652 652;" xml:space="preserve">
<style type="text/css">
	.st0{fill:#E4154B;}
	.st1{fill:#231F20;}
</style>
<g transform="matrix(1.25 0 0 -1.25 0 51.862)">
	<g transform="scale(.1)">
		<path class="st0" d="M164.4-2593.7h882.2v882.3l-882.2,0C164.4-1711.4,164.4-2593.7,164.4-2593.7z"/>
		<path class="st0" d="M1134.8-2593.7H2017v882.3h-882.3C1134.8-1711.4,1134.8-2593.7,1134.8-2593.7z"/>
		<path class="st0" d="M2105.3-2593.7h882.2v882.3h-882.2C2105.3-1711.4,2105.3-2593.7,2105.3-2593.7z"/>
		<path class="st0" d="M605.4-3034.8h882.3v882.3H605.4V-3034.8z"/>
		<path class="st0" d="M1664.2-2152.5h882.2v882.3h-882.2V-2152.5z"/>
		<path class="st1" d="M3358.3-1852.9h-282.5v141.2h728v-141.2h-282.4v-738.8h-163.1L3358.3-1852.9"/>
		<path class="st1" d="M4622.4-2268.4c0-53-9.6-100.8-28.6-143.5c-19.1-42.7-45.1-78.9-78.1-108.7c-33-29.9-71.9-52.8-117-68.9
			c-45.1-16.2-94-24.3-146.9-24.3c-52.8,0-101.8,8.1-146.9,24.3c-45.1,16.1-84.3,39-117.6,68.9c-33.4,29.8-59.5,66-78,108.7
			c-18.7,42.7-28,90.5-28,143.5v556.6h163.2v-551.1c0-21.4,3.4-44,10.4-67.6c7-23.6,18.4-45.4,34.6-65.2s37.4-36.2,64-49
			c26.4-12.8,59.2-19.2,98.4-19.2c39.1,0,71.9,6.4,98.4,19.2c26.5,12.8,47.8,29.2,64,49c16,19.9,27.6,41.6,34.5,65.2
			c6.9,23.6,10.4,46.2,10.4,67.6v551.1h163.2V-2268.4"/>
		<path class="st1" d="M3705-2713c-32.3,14-74.3,20.7-107.7,20.7c-97.5,0-151.4-61.4-151.4-141.1c0-79.2,52.7-138.8,141.8-138.8
			c22.8,0,40.8,2.2,55.2,5.6v101.5h-88.6v61.3h168.8v-209.6c-44.3-11.1-90.4-20-135.3-20c-135.2,0-229.2,63-229.2,194.5
			c0,133.3,87.5,208,229.2,208c48.5,0,86.8-6.1,122.8-16.2L3705-2713"/>
		<path class="st1" d="M3805.5-2739.8h71.3v-65.2h1.2c3.6,26.7,36.5,71.9,84.3,71.9c7.8,0,16.3,0,24.6-2.2v-75.3
			c-7.1,3.9-21.5,6.1-36,6.1c-65.2,0-65.2-75.8-65.2-117v-105.4h-80.2V-2739.8"/>
		<path class="st1" d="M4050.2-2754.8c31.1,13.4,73.1,21.8,107.2,21.8c93.9,0,132.8-36.3,132.8-121v-36.8c0-29,0.7-50.8,1.2-71.9
			c0.6-21.8,1.7-41.8,3.6-64.1h-70.6c-3,15-3,34.1-3.6,42.9h-1.2c-18.5-31.7-58.7-49.6-95.2-49.6c-54.4,0-107.7,30.6-107.7,85.3
			c0,42.9,22.1,67.9,52.7,81.9c30.6,14,70,16.8,103.6,16.8h44.3c0,46.3-22.1,61.9-69.4,61.9c-34.1,0-68.2-12.3-95.1-31.2
			L4050.2-2754.8L4050.2-2754.8z M4144.3-2979c24.6,0,43.7,10.1,56.2,25.7c13.2,16.2,16.8,36.8,16.8,59.1h-34.7
			c-35.9,0-89.1-5.6-89.1-49.7C4093.4-2968.4,4115.5-2979,4144.3-2979"/>
		<path class="st1" d="M4356.2-2739.8h244.2v-61.3l-153.3-167.9h158.7v-58h-256.2v60.8l156.1,168.4h-149.6L4356.2-2739.8"/>
		<path class="st0" d="M4670.5-3034.8h293.9v293.9h-293.9V-3034.8z"/>
	</g>
</g>
</svg>
